<svg width="144" height="48" viewBox="0 0 144 48" fill="none" xmlns="http://www.w3.org/2000/svg">
<path d="M131.999 0.000156H11.4275C10.988 0.000156 10.5538 0.000156 10.1155 0.002556C9.74856 0.004956 9.38455 0.011928 9.0141 0.017796C8.20931 0.0272782 7.40641 0.0981675 6.61238 0.229848C5.81946 0.364395 5.05139 0.618055 4.33413 0.982248C3.61775 1.34952 2.96317 1.82676 2.39414 2.39664C1.82212 2.96492 1.3453 3.62178 0.982011 4.34195C0.61772 5.06069 0.365119 5.83088 0.232933 6.62593C0.0994906 7.41998 0.027684 8.22318 0.0181576 9.02833C0.00703534 9.39625 0.00586078 9.7654 0 10.1334V37.8705C0.00586078 38.2431 0.00703534 38.604 0.0181576 38.9768C0.0276869 39.7819 0.0994936 40.585 0.232933 41.379C0.364754 42.1745 0.61737 42.9452 0.982011 43.6642C1.34513 44.382 1.82202 45.0362 2.39414 45.6014C2.96101 46.1738 3.61601 46.6513 4.33413 47.0158C5.05138 47.381 5.81938 47.6361 6.61238 47.7728C7.40654 47.9034 8.20936 47.9743 9.0141 47.9849C9.38455 47.9931 9.74856 47.9978 10.1155 47.9978C10.5538 48.0002 10.9881 48.0002 11.4275 48.0002H131.999C132.43 48.0002 132.868 48.0002 133.298 47.9978C133.664 47.9978 134.038 47.9931 134.403 47.9849C135.207 47.9749 136.008 47.9039 136.8 47.7728C137.596 47.6352 138.367 47.3801 139.087 47.0158C139.805 46.6511 140.459 46.1736 141.026 45.6014C141.596 45.034 142.074 44.3803 142.442 43.6642C142.804 42.9447 143.054 42.1741 143.184 41.379C143.318 40.5849 143.392 39.7819 143.406 38.9768C143.411 38.604 143.411 38.2431 143.411 37.8705C143.42 37.4345 143.42 37.001 143.42 36.5579V11.4435C143.42 11.0041 143.42 10.5681 143.411 10.1334C143.411 9.7654 143.411 9.39625 143.406 9.02828C143.392 8.22306 143.318 7.42004 143.184 6.62588C143.054 5.83129 142.803 5.06116 142.442 4.3419C141.702 2.89839 140.529 1.72339 139.087 0.98214C138.367 0.618837 137.596 0.365245 136.8 0.22974C136.008 0.0974793 135.207 0.0265653 134.403 0.017628C134.038 0.011772 133.664 0.00474 133.298 0.0024C132.868 0 132.43 0 131.999 0V0.000156Z" fill="#A6A6A6"/>
<path d="M10.1219 46.9498C9.75672 46.9498 9.40037 46.9451 9.03807 46.937C8.28753 46.9272 7.53875 46.8618 6.79786 46.7412C6.10702 46.6221 5.43778 46.4005 4.81222 46.0838C4.19239 45.7696 3.62706 45.3577 3.13788 44.8638C2.64162 44.3758 2.22846 43.8097 1.91477 43.188C1.59763 42.5624 1.37815 41.8917 1.26398 41.1994C1.14068 40.4555 1.07397 39.7034 1.06442 38.9494C1.05682 38.6963 1.04688 37.8537 1.04688 37.8537V10.133C1.04688 10.133 1.05747 9.30332 1.06448 9.05956C1.07362 8.30678 1.13994 7.55579 1.26287 6.81308C1.37726 6.11891 1.59691 5.4463 1.91422 4.81856C2.22676 4.19734 2.63762 3.63084 3.13089 3.14102C3.62361 2.64655 4.19075 2.23253 4.81163 1.91406C5.43576 1.59832 6.10373 1.37828 6.79318 1.26133C7.5365 1.13961 8.28788 1.0738 9.04102 1.06446L10.1225 1.0498H133.293L134.387 1.06504C135.134 1.07392 135.878 1.13914 136.615 1.26015C137.311 1.37857 137.986 1.60014 138.617 1.91757C139.861 2.55939 140.873 3.5748 141.512 4.82149C141.824 5.4449 142.04 6.11201 142.153 6.80019C142.278 7.54899 142.347 8.30589 142.362 9.06485C142.365 9.40469 142.365 9.76972 142.365 10.133C142.375 10.583 142.375 11.0113 142.375 11.4432V36.5576C142.375 36.9935 142.375 37.4189 142.365 37.8478C142.365 38.238 142.365 38.5955 142.36 38.9634C142.346 39.7089 142.278 40.4522 142.156 41.1876C142.044 41.8849 141.825 42.5608 141.508 43.1916C141.192 43.8066 140.782 44.3677 140.291 44.8545C139.802 45.351 139.235 45.7653 138.614 46.0815C137.984 46.4007 137.31 46.6231 136.615 46.7412C135.874 46.8624 135.125 46.9278 134.375 46.937C134.023 46.9451 133.656 46.9498 133.299 46.9498L132 46.9522L10.1219 46.9498Z" fill="black"/>
<path fill-rule="evenodd" clip-rule="evenodd" d="M89.5047 34.8914C87.5454 34.8914 86.1116 33.9212 85.9465 32.4434L83.6665 32.4433C83.8105 35.1386 86.039 36.8437 89.3396 36.8437C92.8673 36.8437 95.0853 35.0976 95.0853 32.3097C95.0853 30.1301 93.8165 28.9019 90.7628 28.1789L89.1231 27.7757C87.2047 27.3012 86.4205 26.6813 86.4205 25.6277C86.4205 24.3059 87.6483 23.3977 89.4426 23.3977C91.2369 23.3977 92.4647 24.2953 92.5993 25.7824H94.8477C94.7751 23.2113 92.6192 21.4453 89.4742 21.4453C86.2965 21.4453 84.0586 23.2113 84.0586 25.7824C84.0586 27.859 85.3274 29.1387 88.0604 29.7996L89.9892 30.2649C91.9181 30.7395 92.7327 31.432 92.7327 32.5887C92.7327 33.9211 91.382 34.8914 89.5047 34.8914ZM50.7001 32.5676H45.027L43.6646 36.5954H41.2617L46.6352 21.6938H49.1317L54.5052 36.5954H52.0613L50.7001 32.5676ZM45.6146 30.709H50.1114L47.8946 24.1723H47.8326L45.6146 30.709ZM61.5816 36.709C64.3052 36.709 66.11 34.5399 66.11 31.1637C66.11 27.7969 64.2946 25.6173 61.5407 25.6172C60.1235 25.5715 58.796 26.3095 58.0855 27.538H58.0446V25.7309H55.8886V40.1895H58.1159V34.8082H58.1675C58.8477 36.0445 60.1738 36.7828 61.5816 36.709ZM63.8207 31.1637C63.8207 28.9641 62.6853 27.518 60.9531 27.518C59.2513 27.518 58.1066 28.9946 58.1066 31.1637C58.1066 33.3528 59.2513 34.8188 60.9531 34.8188C62.6853 34.8188 63.8207 33.3833 63.8207 31.1637ZM73.5247 36.709C76.2483 36.709 78.0531 34.5399 78.0531 31.1637C78.0531 27.7969 76.2378 25.6173 73.4837 25.6173C72.0666 25.5715 70.7391 26.3095 70.0286 27.538H69.9876V25.7309H67.8317V40.1895H70.059V34.8082H70.1106C70.7908 36.0445 72.1169 36.7828 73.5247 36.709ZM75.7638 31.1637C75.7638 28.9641 74.6284 27.518 72.8962 27.518C71.1944 27.518 70.0497 28.9946 70.0497 31.1637C70.0497 33.3528 71.1944 34.8188 72.8962 34.8188C74.6284 34.8188 75.7638 33.3833 75.7638 31.1637ZM99.8923 23.1598V25.7309H101.956V27.4969H99.8923V33.4864C99.8923 34.4169 100.305 34.8505 101.213 34.8505C101.457 34.8462 101.702 34.829 101.945 34.7989V36.5543C101.537 36.6306 101.123 36.6652 100.708 36.6575C98.5112 36.6575 97.6544 35.8313 97.6544 33.7242V27.4969H96.0767V25.7309H97.6544V23.1598H99.8923ZM108.297 25.5973C105.162 25.5973 103.151 27.7454 103.151 31.1637C103.151 34.5915 105.142 36.7301 108.297 36.7301C111.454 36.7301 113.445 34.5915 113.445 31.1637C113.445 27.7453 111.443 25.5973 108.297 25.5973ZM111.175 31.1637C111.175 28.8188 110.102 27.4348 108.297 27.4348C106.492 27.4348 105.42 28.8294 105.42 31.1637C105.42 33.518 106.492 34.8915 108.297 34.8915C110.102 34.8915 111.175 33.518 111.175 31.1637ZM117.405 25.7309H115.281L115.281 36.5954H117.508V30.1512C117.434 29.4993 117.648 28.8474 118.095 28.3669C118.541 27.8863 119.175 27.625 119.829 27.6516C120.168 27.6417 120.506 27.6872 120.83 27.7864V25.7004C120.58 25.6442 120.324 25.6163 120.067 25.6172C118.843 25.5704 117.753 26.3897 117.457 27.5801H117.405V25.7309ZM131.1 33.4044C130.8 35.3766 128.882 36.7301 126.427 36.7301C123.271 36.7301 121.311 34.6126 121.311 31.2153C121.311 27.8075 123.281 25.5973 126.334 25.5973C129.336 25.5973 131.224 27.6622 131.224 30.9563V31.7204H123.56V31.8551C123.488 32.664 123.767 33.4646 124.326 34.0534C124.884 34.6422 125.668 34.9623 126.479 34.9325C127.56 35.0339 128.579 34.4124 128.985 33.4043L131.1 33.4044ZM128.995 30.1618H123.57C123.568 29.4283 123.859 28.7244 124.378 28.2066C124.897 27.6888 125.601 27.4 126.334 27.4044C127.06 27.3887 127.761 27.6774 128.266 28.2008C128.771 28.7243 129.036 29.435 128.995 30.1618Z" fill="white"/>
<path fill-rule="evenodd" clip-rule="evenodd" d="M70.8248 10.125H71.8899V17.6379H70.8248V10.125ZM47.8587 11.4592C47.2068 10.7701 46.2807 10.4099 45.3351 10.4778H42.752V17.638H45.3351C47.4653 17.638 48.7001 16.3231 48.7001 14.0356C48.8193 13.094 48.5105 12.1484 47.8587 11.4592ZM45.211 16.6254H43.8627V11.4897H45.211C45.8832 11.4523 46.5369 11.7177 46.9932 12.2132C47.4496 12.7087 47.661 13.3824 47.5694 14.0502C47.6681 14.7208 47.4598 15.4001 47.0023 15.8997C46.5448 16.3993 45.8868 16.6658 45.211 16.6254ZM49.9548 14.9338C49.8623 13.9653 50.3261 13.0279 51.1518 12.5149C51.9775 12.0019 53.0223 12.0019 53.848 12.5149C54.6737 13.0279 55.1376 13.9653 55.045 14.9338C55.1393 15.9034 54.6759 16.8425 53.8495 17.3567C53.023 17.8708 51.9768 17.8708 51.1504 17.3567C50.3239 16.8425 49.8605 15.9034 49.9548 14.9338ZM52.5017 13.0776C53.4239 13.0776 53.9495 13.7625 53.9495 14.9338H53.9495C53.9495 16.1098 53.424 16.7942 52.5017 16.7942C51.5759 16.7942 51.055 16.1145 51.055 14.9338C51.055 13.7625 51.5758 13.0776 52.5017 13.0776ZM61.8113 17.6379H60.7064L59.591 13.6582H59.5067L58.396 17.6379H57.3016L55.814 12.2344H56.8943L57.8611 16.3576H57.9407L59.0503 12.2344H60.072L61.1816 16.3576H61.2659L62.228 12.2344H63.2931L61.8113 17.6379ZM65.5696 12.2344H64.5443L64.5443 17.6379H65.6093V14.4768C65.5711 14.1172 65.6917 13.7588 65.9394 13.4956C66.1871 13.2324 66.5372 13.0906 66.898 13.1074C67.6857 13.1074 68.0626 13.5393 68.0626 14.4076V17.6378H69.1277V14.1398C69.2058 13.6115 69.0396 13.0763 68.6762 12.6853C68.3128 12.2943 67.7916 12.09 67.2597 12.1301C66.5727 12.0742 65.9259 12.4608 65.6492 13.0928H65.5696V12.2344ZM74.5677 12.5148C73.742 13.0278 73.278 13.9652 73.3705 14.9338C73.2763 15.9034 73.7398 16.8425 74.5663 17.3566C75.3928 17.8707 76.439 17.8707 77.2655 17.3566C78.092 16.8425 78.5555 15.9034 78.4613 14.9338C78.5538 13.9652 78.0899 13.0278 77.2641 12.5148C76.4383 12.0018 75.3935 12.0018 74.5677 12.5148ZM77.3652 14.9338C77.3652 13.7625 76.8397 13.0776 75.9174 13.0776C74.9916 13.0776 74.4707 13.7625 74.4707 14.9338C74.4707 16.1145 74.9916 16.7942 75.9174 16.7942C76.8397 16.7942 77.3652 16.1098 77.3652 14.9338ZM81.5899 14.4967C80.3059 14.5764 79.5826 15.1371 79.5826 16.1098C79.5844 16.571 79.781 17.0099 80.1237 17.318C80.4665 17.6261 80.9234 17.7747 81.3815 17.7269C82.0351 17.7572 82.6544 17.4331 83.0026 16.8785H83.0869V17.6379H84.1122V13.9459C84.1122 12.8045 83.349 12.1301 81.996 12.1301C80.7717 12.1301 79.8998 12.7254 79.7909 13.6535H80.8221C80.9403 13.2715 81.3523 13.053 81.9469 13.053C82.6749 13.053 83.0517 13.3752 83.0517 13.9459V14.4123L81.5899 14.4967ZM83.0517 15.6481V15.1963L81.7338 15.2807C80.9906 15.3305 80.6535 15.5836 80.6535 16.06C80.6535 16.5463 81.0749 16.8293 81.6543 16.8293C81.9973 16.8641 82.3397 16.758 82.6031 16.5353C82.8666 16.3126 83.0285 15.9924 83.0517 15.6481ZM87.7522 12.1447C86.3887 12.1447 85.512 13.2264 85.512 14.9338C85.512 16.6453 86.3793 17.727 87.7522 17.7269C88.4483 17.7526 89.1011 17.3895 89.447 16.7842H89.5313V17.6379H90.5519V10.125H89.4868V13.0927H89.4072C89.0856 12.4824 88.4407 12.113 87.7522 12.1447ZM86.6122 14.9338C86.6122 16.0799 87.1518 16.7696 88.0542 16.7696C88.9519 16.7696 89.5067 16.07 89.5067 14.9385C89.5067 13.8123 88.9461 13.1028 88.0542 13.1028C87.1576 13.1028 86.6122 13.7971 86.6122 14.9338H86.6122ZM96.1556 12.5149C95.3299 13.0279 94.866 13.9653 94.9586 14.9338C94.8643 15.9034 95.3277 16.8425 96.1541 17.3567C96.9806 17.8708 98.0268 17.8708 98.8532 17.3567C99.6797 16.8425 100.143 15.9034 100.049 14.9338C100.141 13.9653 99.6775 13.0279 98.8518 12.5149C98.0261 12.0019 96.9813 12.0019 96.1556 12.5149ZM98.9533 14.9338C98.9533 13.7625 98.4277 13.0776 97.5054 13.0776C96.5796 13.0776 96.0588 13.7625 96.0588 14.9338C96.0588 16.1145 96.5797 16.7942 97.5054 16.7942C98.4277 16.7942 98.9533 16.1098 98.9533 14.9338ZM102.503 12.2344H101.478V17.6379H102.543V14.4768C102.505 14.1172 102.625 13.7588 102.873 13.4956C103.121 13.2324 103.471 13.0906 103.832 13.1074C104.619 13.1074 104.996 13.5393 104.996 14.4076V17.6378H106.061V14.1398C106.139 13.6115 105.973 13.0763 105.61 12.6853C105.246 12.2943 104.725 12.09 104.193 12.1301C103.506 12.0742 102.86 12.4608 102.583 13.0928H102.503V12.2344ZM112.08 10.8891V12.259H113.249V13.1572H112.08V15.9358C112.08 16.5018 112.313 16.7496 112.843 16.7496C112.979 16.7492 113.114 16.741 113.249 16.725V17.6133C113.058 17.6476 112.864 17.6658 112.67 17.6678C111.485 17.6678 111.013 17.2506 111.013 16.2088V13.1572H110.157V12.2589H111.013V10.8891H112.08ZM115.76 10.125H114.704L114.704 17.6379H115.769V14.482C115.736 14.1112 115.868 13.7448 116.13 13.4807C116.392 13.2165 116.757 13.0817 117.128 13.1121C117.88 13.1121 118.282 13.5492 118.282 14.4123V17.6379H119.348V14.1492C119.419 13.6236 119.251 13.0939 118.892 12.7043C118.532 12.3148 118.018 12.106 117.489 12.1348C116.792 12.0781 116.134 12.4652 115.844 13.1027H115.76V10.125ZM125.558 16.1789C125.26 17.1982 124.275 17.8567 123.22 17.7422C122.5 17.7612 121.809 17.4626 121.329 16.9255C120.848 16.3884 120.628 15.6671 120.727 14.9531C120.631 14.2371 120.85 13.5148 121.328 12.9731C121.805 12.4315 122.494 12.1239 123.215 12.1301C124.717 12.1301 125.623 13.1573 125.623 14.8541V15.2262H121.812V15.286C121.778 15.6869 121.915 16.0835 122.189 16.3782C122.462 16.673 122.847 16.8384 123.249 16.834C123.77 16.8966 124.277 16.6378 124.533 16.1789L125.558 16.1789ZM124.538 14.4375H121.812C121.807 14.0649 121.953 13.7061 122.216 13.4426C122.479 13.179 122.837 13.033 123.209 13.0377C123.576 13.0293 123.93 13.1765 124.183 13.4431C124.436 13.7096 124.565 14.0708 124.538 14.4375Z" fill="white"/>
<path fill-rule="evenodd" clip-rule="evenodd" d="M27.748 10.4648C27.864 11.9819 27.3848 13.4845 26.4122 14.6536C25.4685 15.8287 24.0387 16.5056 22.5328 16.49C22.4371 15.0166 22.9302 13.5655 23.9036 12.4564C24.8894 11.3322 26.262 10.6211 27.748 10.4648ZM32.5105 19.3789C30.7783 20.4451 29.7123 22.3256 29.6861 24.3613C29.6886 26.6646 31.0662 28.7431 33.1849 29.6403C32.7774 30.9657 32.1632 32.2181 31.365 33.3514C30.2931 34.9568 29.1692 36.5253 27.3853 36.5543C26.5369 36.5739 25.9642 36.3297 25.3675 36.0751C24.745 35.8097 24.0964 35.533 23.0814 35.533C22.005 35.533 21.3273 35.8186 20.6737 36.094C20.1089 36.332 19.5621 36.5624 18.7914 36.5944C17.0926 36.6574 15.7942 34.8808 14.6833 33.2904C12.4629 30.0425 10.7339 24.1372 13.0519 20.1191C14.1404 18.1608 16.1755 16.918 18.4128 16.8457C19.3763 16.8258 20.3009 17.1977 21.1115 17.5236C21.7314 17.7729 22.2846 17.9954 22.7377 17.9954C23.1359 17.9954 23.6737 17.7817 24.3005 17.5327C25.2878 17.1403 26.4959 16.6603 27.727 16.7896C29.64 16.8496 31.4127 17.8091 32.5105 19.3789Z" fill="white"/>
</svg>
