<svg width="24" height="24" viewBox="0 0 24 24" fill="none" xmlns="http://www.w3.org/2000/svg">
<path fill-rule="evenodd" clip-rule="evenodd" d="M11.1021 6.80376L11.6967 6.19373C11.9484 5.93542 12.3555 5.93542 12.6046 6.19373L17.8112 11.5329C18.0629 11.7912 18.0629 12.2088 17.8112 12.4644L12.6046 17.8063C12.3529 18.0646 11.9458 18.0646 11.6967 17.8063L11.1021 17.1962C10.8477 16.9352 10.853 16.5093 11.1128 16.2537L14.3401 13.0992H6.64279C6.28658 13.0992 6 12.8051 6 12.4397V11.5603C6 11.1949 6.28658 10.9008 6.64279 10.9008H14.3401L11.1128 7.74628C10.8504 7.49073 10.845 7.0648 11.1021 6.80376Z" fill="#44A0FF"/>
</svg>
