<svg width="64" height="64" viewBox="0 0 64 64" fill="none" xmlns="http://www.w3.org/2000/svg">
<path fill-rule="evenodd" clip-rule="evenodd" d="M32 64C49.6731 64 64 49.6731 64 32C64 14.3269 49.6731 0 32 0C14.3269 0 0 14.3269 0 32C0 49.6731 14.3269 64 32 64Z" fill="#ECF5FF"/>
<path fill-rule="evenodd" clip-rule="evenodd" d="M42.9184 25.1431L37.896 20.9287L36.4876 22.5992L41.51 26.8136L42.9184 25.1431ZM27.5019 22.5992L26.1044 20.9287L21.082 25.1322L22.4905 26.8027L27.5019 22.5992ZM32.5461 27.6325H30.9084V34.1834L36.0945 37.2951L36.9134 35.9521L32.5461 33.3645V27.6325ZM32.0002 23.2652C26.5739 23.2652 22.1738 27.6652 22.1738 33.0916C22.1738 38.5179 26.563 42.9179 32.0002 42.9179C37.4266 42.9179 41.8266 38.5179 41.8266 33.0916C41.8266 27.6652 37.4266 23.2652 32.0002 23.2652ZM32.0002 40.7343C27.7749 40.7343 24.3575 37.3169 24.3575 33.0916C24.3575 28.8662 27.7749 25.4488 32.0002 25.4488C36.2256 25.4488 39.6429 28.8662 39.6429 33.0916C39.6429 37.3169 36.2256 40.7343 32.0002 40.7343Z" fill="#44A0FF"/>
</svg>
