<svg width="64" height="64" viewBox="0 0 64 64" fill="none" xmlns="http://www.w3.org/2000/svg">
<path fill-rule="evenodd" clip-rule="evenodd" d="M32 64C49.6731 64 64 49.6731 64 32C64 14.3269 49.6731 0 32 0C14.3269 0 0 14.3269 0 32C0 49.6731 14.3269 64 32 64Z" fill="#ECF5FF"/>
<path fill-rule="evenodd" clip-rule="evenodd" d="M38.8622 37.2386C37.9929 37.2386 37.2151 37.5818 36.6204 38.1194L28.465 33.3726C28.5222 33.1095 28.5679 32.8464 28.5679 32.5719C28.5679 32.2974 28.5222 32.0343 28.465 31.7712L36.5289 27.0702C37.1465 27.6421 37.9586 27.9966 38.8622 27.9966C40.7609 27.9966 42.2937 26.4639 42.2937 24.5652C42.2937 22.6665 40.7609 21.1338 38.8622 21.1338C36.9635 21.1338 35.4308 22.6665 35.4308 24.5652C35.4308 24.8397 35.4765 25.1028 35.5337 25.3659L27.4699 30.0669C26.8522 29.495 26.0401 29.1405 25.1365 29.1405C23.2378 29.1405 21.7051 30.6732 21.7051 32.5719C21.7051 34.4706 23.2378 36.0033 25.1365 36.0033C26.0401 36.0033 26.8522 35.6487 27.4699 35.0768L35.6138 39.8351C35.5566 40.0753 35.5223 40.3269 35.5223 40.5786C35.5223 42.4201 37.0207 43.9185 38.8622 43.9185C40.7038 43.9185 42.2021 42.4201 42.2021 40.5786C42.2021 38.737 40.7038 37.2386 38.8622 37.2386Z" fill="#44A0FF"/>
</svg>
