<svg width="64" height="64" viewBox="0 0 64 64" fill="none" xmlns="http://www.w3.org/2000/svg">
<path fill-rule="evenodd" clip-rule="evenodd" d="M32 64C49.6731 64 64 49.6731 64 32C64 14.3269 49.6731 0 32 0C14.3269 0 0 14.3269 0 32C0 49.6731 14.3269 64 32 64Z" fill="#ECF5FF"/>
<path fill-rule="evenodd" clip-rule="evenodd" d="M40.7348 21.082H23.2657C22.0647 21.082 21.0929 22.0647 21.0929 23.2657L21.082 42.9184L25.4493 38.5511H40.7348C41.9358 38.5511 42.9184 37.5685 42.9184 36.3675V23.2657C42.9184 22.0647 41.9358 21.082 40.7348 21.082ZM38.5511 34.1839H25.4493V32.0002H38.5511V34.1839ZM38.5511 30.9084H25.4493V28.7248H38.5511V30.9084ZM38.5511 27.6329H25.4493V25.4493H38.5511V27.6329Z" fill="#44A0FF"/>
</svg>
