<svg width="54" height="18" viewBox="0 0 54 18" fill="none" xmlns="http://www.w3.org/2000/svg">
<path fill-rule="evenodd" clip-rule="evenodd" d="M0 17.016V0H10.752V3.144H3.312V7.344H9.936V8.85574C9.77244 9.33574 9.6672 9.84783 9.62029 10.392H3.336V17.016H0ZM20.9117 11.952H12.736C12.752 12.336 12.844 12.692 13.012 13.02C13.18 13.348 13.396 13.632 13.66 13.872C13.924 14.112 14.232 14.3 14.584 14.436C14.936 14.572 15.312 14.64 15.712 14.64C16.464 14.64 17.052 14.472 17.476 14.136C17.9 13.8 18.208 13.368 18.4 12.84L21.064 13.632C20.92 14.144 20.692 14.628 20.38 15.084C20.068 15.54 19.688 15.936 19.24 16.272C18.792 16.608 18.268 16.876 17.668 17.076C17.068 17.276 16.408 17.376 15.688 17.376C14.872 17.376 14.096 17.236 13.36 16.956C12.624 16.676 11.976 16.264 11.416 15.72C10.856 15.176 10.412 14.512 10.084 13.728C9.756 12.944 9.592 12.056 9.592 11.064C9.592 10.8348 9.60143 10.6108 9.62029 10.392H9.936V8.85574C9.97757 8.73375 10.0229 8.61384 10.072 8.496C10.392 7.728 10.82 7.076 11.356 6.54C11.892 6.004 12.512 5.588 13.216 5.292C13.92 4.996 14.648 4.848 15.4 4.848C17.24 4.848 18.672 5.39199 19.696 6.48C20.4051 7.23343 20.8687 8.18251 21.0868 9.32724C20.9383 9.88789 20.864 10.4828 20.864 11.112C20.864 11.3996 20.8799 11.6796 20.9117 11.952ZM32.4871 13.7651C32.3597 14.1314 32.1853 14.4911 31.964 14.844C31.668 15.316 31.288 15.74 30.824 16.116C30.36 16.492 29.816 16.796 29.192 17.028C28.568 17.26 27.864 17.376 27.08 17.376C26.216 17.376 25.404 17.22 24.644 16.908C23.884 16.596 23.224 16.16 22.664 15.6C22.104 15.04 21.664 14.38 21.344 13.62C21.1249 13.0996 20.9808 12.5436 20.9117 11.952H21.184L21.2213 11.4C21.2284 11.2613 21.232 11.1173 21.232 10.968C21.232 10.3825 21.1836 9.83558 21.0868 9.32724C21.1535 9.07524 21.2352 8.83016 21.332 8.592C21.644 7.824 22.076 7.164 22.628 6.612C23.18 6.06 23.828 5.628 24.572 5.316C25.316 5.004 26.12 4.848 26.984 4.848C27.784 4.848 28.5 4.964 29.132 5.196C29.764 5.428 30.312 5.728 30.776 6.096C31.24 6.464 31.616 6.888 31.904 7.368C32.1328 7.74925 32.311 8.13555 32.4388 8.5269C32.4298 8.54851 32.4208 8.57021 32.412 8.592C32.3693 8.69701 32.3296 8.80337 32.2928 8.91107L29.672 9.792C29.528 9.296 29.252 8.84 28.844 8.424C28.436 8.008 27.84 7.8 27.056 7.8C26.64 7.8 26.252 7.872 25.892 8.016C25.532 8.16 25.216 8.372 24.944 8.652C24.672 8.932 24.456 9.28 24.296 9.696C24.136 10.112 24.056 10.584 24.056 11.112C24.056 11.64 24.136 12.112 24.296 12.528C24.456 12.944 24.676 13.296 24.956 13.584C25.236 13.872 25.556 14.088 25.916 14.232C26.276 14.376 26.664 14.448 27.08 14.448C27.48 14.448 27.836 14.388 28.148 14.268C28.46 14.148 28.728 13.992 28.952 13.8C29.176 13.608 29.356 13.392 29.492 13.152C29.628 12.912 29.728 12.68 29.792 12.456L32.2971 13.2911C32.3362 13.4022 32.3785 13.5119 32.424 13.62C32.4445 13.6688 32.4656 13.7171 32.4871 13.7651ZM43.3117 14.3685C43.2318 14.5283 43.1426 14.6868 43.044 14.844C42.748 15.316 42.368 15.74 41.904 16.116C41.44 16.492 40.896 16.796 40.272 17.028C39.648 17.26 38.944 17.376 38.16 17.376C37.296 17.376 36.484 17.22 35.724 16.908C34.964 16.596 34.304 16.16 33.744 15.6C33.2199 15.0759 32.801 14.4643 32.4871 13.7651C32.5301 13.6415 32.5677 13.5171 32.6 13.392L32.2971 13.2911C32.0617 12.6206 31.944 11.8943 31.944 11.112C31.944 10.3247 32.0603 9.59106 32.2928 8.91107L32.528 8.832C32.5017 8.72996 32.4719 8.62826 32.4388 8.5269C32.7486 7.78663 33.1717 7.14834 33.708 6.612C34.26 6.06 34.908 5.628 35.652 5.316C36.396 5.004 37.2 4.848 38.064 4.848C38.864 4.848 39.58 4.964 40.212 5.196C40.844 5.428 41.392 5.728 41.856 6.096C42.32 6.464 42.696 6.888 42.984 7.368C43.2181 7.75815 43.3993 8.15358 43.5277 8.5543C43.5182 8.61487 43.5103 8.67543 43.504 8.736L43.5871 8.7536C43.5943 8.77971 43.6013 8.80585 43.608 8.832L40.752 9.792C40.608 9.296 40.332 8.84 39.924 8.424C39.516 8.008 38.92 7.8 38.136 7.8C37.72 7.8 37.332 7.872 36.972 8.016C36.612 8.16 36.296 8.372 36.024 8.652C35.752 8.932 35.536 9.28 35.376 9.696C35.216 10.112 35.136 10.584 35.136 11.112C35.136 11.64 35.216 12.112 35.376 12.528C35.536 12.944 35.756 13.296 36.036 13.584C36.316 13.872 36.636 14.088 36.996 14.232C37.356 14.376 37.744 14.448 38.16 14.448C38.56 14.448 38.916 14.388 39.228 14.268C39.54 14.148 39.808 13.992 40.032 13.8C40.256 13.608 40.436 13.392 40.572 13.152C40.708 12.912 40.808 12.68 40.872 12.456L43.2982 13.2647C43.2754 13.4357 43.264 13.6141 43.264 13.8C43.264 13.993 43.2799 14.1825 43.3117 14.3685ZM43.3117 14.3685C43.4719 14.0484 43.5946 13.7228 43.68 13.392L43.2982 13.2647C43.3402 12.95 43.4208 12.6604 43.54 12.396C43.724 11.988 43.976 11.632 44.296 11.328C44.616 11.024 44.988 10.784 45.412 10.608C45.836 10.432 46.296 10.304 46.792 10.224L49.696 9.792C50.032 9.744 50.264 9.644 50.392 9.492C50.52 9.34 50.584 9.16 50.584 8.952C50.584 8.536 50.42 8.176 50.092 7.872C49.764 7.568 49.264 7.416 48.592 7.416C47.888 7.416 47.348 7.608 46.972 7.992C46.596 8.376 46.384 8.824 46.336 9.336L43.5871 8.7536C43.5687 8.68702 43.549 8.62059 43.5277 8.5543C43.5912 8.15087 43.7273 7.74743 43.936 7.344C44.176 6.88 44.504 6.464 44.92 6.096C45.336 5.728 45.848 5.428 46.456 5.196C47.064 4.964 47.768 4.848 48.568 4.848C49.496 4.848 50.288 4.972 50.944 5.22C51.6 5.468 52.132 5.796 52.54 6.204C52.948 6.612 53.244 7.088 53.428 7.632C53.612 8.176 53.704 8.744 53.704 9.336V15.144C53.704 15.464 53.72 15.804 53.752 16.164L53.7904 16.5595C53.8096 16.739 53.8288 16.8912 53.848 17.016H50.92L50.8835 16.7952C50.8662 16.6704 50.8504 16.524 50.836 16.356C50.812 16.076 50.8 15.824 50.8 15.6C50.496 16.064 50.06 16.472 49.492 16.824C48.924 17.176 48.2 17.352 47.32 17.352C46.696 17.352 46.132 17.252 45.628 17.052C45.124 16.852 44.696 16.588 44.344 16.26C43.992 15.932 43.724 15.556 43.54 15.132C43.4325 14.8843 43.3564 14.6298 43.3117 14.3685ZM18.088 9.768C18.072 9.48 18.012 9.196 17.908 8.916C17.804 8.636 17.644 8.388 17.428 8.172C17.212 7.956 16.94 7.78 16.612 7.644C16.284 7.508 15.896 7.44 15.448 7.44C15.032 7.44 14.664 7.512 14.344 7.656C14.024 7.8 13.752 7.984 13.528 8.208C13.304 8.432 13.132 8.68 13.012 8.952C12.892 9.224 12.824 9.496 12.808 9.768H18.088ZM46.84 14.556C47.096 14.836 47.48 14.976 47.992 14.976C48.328 14.976 48.652 14.932 48.964 14.844C49.276 14.756 49.552 14.604 49.792 14.388C50.032 14.172 50.224 13.892 50.368 13.548C50.512 13.204 50.584 12.768 50.584 12.24V11.712L47.92 12.12C47.504 12.184 47.156 12.332 46.876 12.564C46.596 12.796 46.456 13.144 46.456 13.608C46.456 13.96 46.584 14.276 46.84 14.556Z" fill="white"/>
</svg>
