<svg width="162" height="48" viewBox="0 0 162 48" fill="none" xmlns="http://www.w3.org/2000/svg">
<rect width="161.9" height="48" rx="6" fill="black"/>
<path fill-rule="evenodd" clip-rule="evenodd" d="M5.99631 0H155.904C159.216 0 161.9 2.68629 161.9 6V42C161.9 45.3137 159.216 48 155.904 48H5.99631C2.68464 48 0 45.3137 0 42V6C0 2.68629 2.68464 0 5.99631 0ZM160.941 6C160.941 3.21648 158.686 0.96 155.904 0.96H5.99631C3.21451 0.96 0.95941 3.21648 0.95941 6V42C0.95941 44.7835 3.21451 47.04 5.99631 47.04H155.904C158.686 47.04 160.941 44.7835 160.941 42V6Z" fill="#A6A6A6"/>
<path fill-rule="evenodd" clip-rule="evenodd" d="M57.253 27.6716V29.8316H62.4338C62.3525 30.8489 61.9299 31.8089 61.2345 32.5556C60.1864 33.6238 58.7359 34.1992 57.241 34.1396C54.0618 34.1396 51.4845 31.5607 51.4845 28.3796C51.4845 25.1984 54.0618 22.6196 57.241 22.6196C58.7014 22.5957 60.1117 23.1524 61.1626 24.1676L62.6856 22.6436C61.2524 21.1914 59.2926 20.3819 57.253 20.3996C54.3495 20.2865 51.6169 21.772 50.1316 24.2708C48.6462 26.7697 48.6462 29.8814 50.1316 32.3803C51.6169 34.8792 54.3495 36.3646 57.253 36.2516C59.3298 36.3455 61.3457 35.536 62.7816 34.0316C64.038 32.6503 64.7088 30.8345 64.6524 28.9676C64.6563 28.5128 64.6161 28.0586 64.5325 27.6116L57.253 27.6716ZM70.5528 26.0996C67.7394 26.1062 65.4635 28.3925 65.4679 31.2076C65.4723 34.0226 67.7554 36.3018 70.5688 36.2996C73.3821 36.2974 75.6616 34.0147 75.6616 31.1996C75.6814 29.8368 75.1474 28.5244 74.1821 27.563C73.2167 26.6015 71.9026 26.0734 70.5408 26.0996H70.5528ZM76.6451 31.2155C76.6363 28.402 78.9062 26.1128 81.7179 26.0996C83.0797 26.0734 84.3938 26.6015 85.3592 27.563C86.3246 28.5244 86.8585 29.8368 86.8388 31.1996C86.8387 34.0131 84.5616 36.2951 81.7499 36.2995C78.9381 36.3039 76.6539 34.029 76.6451 31.2155ZM78.7102 32.5417C79.2578 33.6888 80.4506 34.3843 81.7179 34.2956C82.5134 34.2771 83.2677 33.9379 83.8096 33.355C84.3515 32.772 84.6352 31.9948 84.5961 31.1996C84.593 29.9284 83.8137 28.7882 82.6308 28.3245C81.4479 27.8607 80.1019 28.1677 79.2366 29.0984C78.3713 30.0292 78.1625 31.3947 78.7102 32.5417ZM67.5371 32.5509C68.0886 33.6972 69.2848 34.3893 70.5528 34.2956H70.5408C71.3363 34.2771 72.0905 33.9379 72.6325 33.355C73.1744 32.772 73.458 31.9948 73.419 31.1996C73.4156 29.9273 72.6346 28.7867 71.4503 28.324C70.2659 27.8613 68.9192 28.1707 68.0551 29.104C67.191 30.0373 66.9856 31.4046 67.5371 32.5509ZM107.226 26.0996C109.215 26.1728 110.951 27.4666 111.592 29.3516L111.843 29.8916L105.02 32.7116C105.447 33.6862 106.427 34.3001 107.49 34.2596C108.516 34.2622 109.469 33.7243 109.997 32.8436L111.735 34.0436C110.789 35.4613 109.194 36.3088 107.49 36.2996C106.136 36.3194 104.831 35.7873 103.877 34.8255C102.922 33.8636 102.4 32.5547 102.429 31.1996C102.346 29.8754 102.815 28.576 103.724 27.6098C104.632 26.6437 105.9 26.097 107.226 26.0996ZM104.636 31.0556C104.587 30.3058 104.841 29.5678 105.342 29.0079C105.843 28.448 106.548 28.1134 107.298 28.0796C108.089 28.0274 108.835 28.4524 109.193 29.1596L104.636 31.0556ZM101.338 35.9996H99.0952V20.9996H101.338V35.9996ZM95.4255 27.2396H95.3415C94.6579 26.4748 93.6806 26.0382 92.6552 26.0396C89.933 26.1717 87.7938 28.4186 87.7938 31.1456C87.7938 33.8726 89.933 36.1195 92.6552 36.2516C93.6839 36.2689 94.6676 35.8295 95.3415 35.0516H95.4135V35.7836C95.4135 37.7396 94.3701 38.7836 92.6912 38.7836C91.5474 38.7568 90.5334 38.0408 90.1247 36.9716L88.1699 37.7876C88.9227 39.6198 90.7115 40.8114 92.6912 40.7996C95.3175 40.7996 97.4882 39.2516 97.4882 35.4836V26.3996H95.4255V27.2396ZM92.8553 34.2952L92.8591 34.2956H92.8471L92.8553 34.2952ZM94.8762 33.3329C94.3615 33.9157 93.6317 34.2631 92.8553 34.2952C91.2536 34.1521 90.0257 32.8091 90.0257 31.1996C90.0257 29.5888 91.2555 28.245 92.8591 28.1036C93.6339 28.1434 94.3599 28.4945 94.8724 29.0774C95.385 29.6602 95.6406 30.4255 95.5814 31.1996C95.6475 31.9772 95.3927 32.7481 94.8762 33.3329ZM122.097 20.9996H116.736V35.9996H118.979V30.3116H122.109C123.851 30.4368 125.517 29.5778 126.427 28.0855C127.336 26.5933 127.336 24.7179 126.427 23.2256C125.517 21.7334 123.851 20.8743 122.109 20.9996H122.097ZM118.967 28.1996H122.097L122.145 28.2356C123.566 28.2356 124.717 27.0832 124.717 25.6616C124.717 24.24 123.566 23.0876 122.145 23.0876H118.967V28.1996ZM135.925 26.0396C134.256 25.9398 132.687 26.8401 131.931 28.3316L133.922 29.1596C134.323 28.42 135.122 27.987 135.961 28.0556C136.536 27.9884 137.114 28.1551 137.565 28.5184C138.016 28.8817 138.302 29.4111 138.359 29.9876V30.1436C137.639 29.762 136.836 29.5641 136.021 29.5676C133.874 29.5676 131.703 30.7676 131.703 32.9396C131.746 33.8752 132.165 34.7538 132.865 35.3753C133.566 35.9969 134.487 36.3086 135.421 36.2396C136.571 36.3222 137.675 35.77 138.299 34.7996H138.371V35.9996H140.53V30.2276C140.53 27.5996 138.539 26.0756 135.985 26.0756L135.925 26.0396ZM133.898 32.9876C133.898 33.8876 134.917 34.2596 135.649 34.2596L135.709 34.2956C137.06 34.2626 138.18 33.2389 138.335 31.8956C137.713 31.548 137.009 31.374 136.296 31.3916C135.169 31.3916 133.898 31.7876 133.898 32.9876ZM148.397 26.3996L145.83 32.9036H145.758L143.096 26.3996H140.698L144.691 35.4956L142.413 40.5476H144.751L150.891 26.3996H148.397ZM130.48 35.9996H128.237V20.9996H130.48V35.9996Z" fill="white"/>
<path fill-rule="evenodd" clip-rule="evenodd" d="M83 9.32377C81.5852 10.8223 81.5852 13.1653 83 14.6638C84.4595 16.116 86.8172 16.116 88.2767 14.6638C89.6976 13.1677 89.6976 10.8199 88.2767 9.32377C87.5788 8.62027 86.6291 8.22461 85.6384 8.22461C84.6477 8.22461 83.698 8.62027 83 9.32377ZM55.9686 14.6878C56.5842 14.0447 56.9093 13.1772 56.8681 12.2878C56.8681 12.1067 56.8521 11.926 56.8201 11.7478H53.3302V12.6118H55.9326C55.9149 13.156 55.702 13.6756 55.333 14.0758C54.511 14.8708 53.2917 15.093 52.2424 14.6389C51.1931 14.1848 50.5199 13.1436 50.536 11.9998C50.5099 11.2428 50.7931 10.5079 51.3203 9.9645C51.8476 9.42107 52.5733 9.11605 53.3302 9.11977C54.0832 9.0786 54.8118 9.39418 55.297 9.97177L55.9326 9.33577C55.6256 8.98244 55.2393 8.70691 54.8053 8.53177C54.3392 8.33217 53.8372 8.23008 53.3302 8.23177C52.3356 8.20959 51.3761 8.60056 50.6799 9.31177C49.6084 10.391 49.2878 12.0077 49.8664 13.4145C50.445 14.8212 51.81 15.7439 53.3302 15.7558C54.3214 15.7911 55.2808 15.4027 55.9686 14.6878ZM59.1227 9.28777H62.3607V8.39977H58.1633V15.5998H62.3607V14.7118H59.1227V12.4318H62.0729V11.5678H59.1227V9.28777ZM66.2943 15.5998H65.3708V9.28777H63.3561V8.39977H68.357V9.28777H66.2943V15.5998ZM72.8063 8.39977H71.8828V15.5998H72.8063V8.39977ZM76.9077 15.5998H75.9843V9.28777H73.9695V8.39977H78.9105V9.28777H76.9077V15.5998ZM91.7666 8.39977H90.6393V15.5998H91.5747V9.73177L95.2325 15.5998H96.1919V8.39977H95.2684V14.0038L91.7666 8.39977ZM83.6836 14.0638C84.7645 15.1408 86.5122 15.1408 87.5932 14.0638C88.6548 12.8928 88.6548 11.1068 87.5932 9.93577C86.5122 8.85869 84.7645 8.85869 83.6836 9.93577C82.622 11.1068 82.622 12.8928 83.6836 14.0638Z" fill="white"/>
<path d="M83 14.6638L82.8181 14.8355L82.8237 14.841L83 14.6638ZM83 9.32377L82.8225 9.14764L82.8182 9.15214L83 9.32377ZM88.2767 14.6638L88.4531 14.8411L88.458 14.8359L88.2767 14.6638ZM88.2767 9.32377L88.4581 9.15157L88.4542 9.14769L88.2767 9.32377ZM56.8681 12.2878L56.6178 12.2877L56.6183 12.2993L56.8681 12.2878ZM55.9686 14.6878L56.1488 14.8611L56.1492 14.8606L55.9686 14.6878ZM56.8201 11.7478L57.0662 11.7036L57.0292 11.4978H56.8201V11.7478ZM53.3302 11.7478V11.4978H53.0802V11.7478H53.3302ZM53.3302 12.6118H53.0802V12.8618H53.3302V12.6118ZM55.9326 12.6118L56.1825 12.6199L56.1909 12.3618H55.9326V12.6118ZM55.333 14.0758L55.5068 14.2555L55.512 14.2505L55.5168 14.2453L55.333 14.0758ZM50.536 11.9998L50.7862 12.0033L50.7858 11.9912L50.536 11.9998ZM51.3203 9.9645L51.1409 9.79041L51.3203 9.9645ZM53.3302 9.11977L53.329 9.36977L53.3365 9.3698L53.3439 9.3694L53.3302 9.11977ZM55.297 9.97177L55.1056 10.1326L55.2811 10.3414L55.4739 10.1485L55.297 9.97177ZM55.9326 9.33577L56.1095 9.51249L56.2742 9.34768L56.1214 9.17179L55.9326 9.33577ZM54.8053 8.53177L54.7069 8.76164L54.7118 8.7636L54.8053 8.53177ZM53.3302 8.23177L53.3247 8.48179L53.3311 8.48177L53.3302 8.23177ZM50.6799 9.31177L50.8573 9.48792L50.8585 9.48665L50.6799 9.31177ZM49.8664 13.4145L49.6352 13.5096H49.6352L49.8664 13.4145ZM53.3302 15.7558L53.3392 15.5058L53.3322 15.5058L53.3302 15.7558ZM62.3607 9.28777V9.53777H62.6107V9.28777H62.3607ZM59.1227 9.28777V9.03777H58.8727V9.28777H59.1227ZM62.3607 8.39977H62.6107V8.14977H62.3607V8.39977ZM58.1633 8.39977V8.14977H57.9133V8.39977H58.1633ZM58.1633 15.5998H57.9133V15.8498H58.1633V15.5998ZM62.3607 15.5998V15.8498H62.6107V15.5998H62.3607ZM62.3607 14.7118H62.6107V14.4618H62.3607V14.7118ZM59.1227 14.7118H58.8727V14.9618H59.1227V14.7118ZM59.1227 12.4318V12.1818H58.8727V12.4318H59.1227ZM62.0729 12.4318V12.6818H62.3229V12.4318H62.0729ZM62.0729 11.5678H62.3229V11.3178H62.0729V11.5678ZM59.1227 11.5678H58.8727V11.8178H59.1227V11.5678ZM65.3708 15.5998H65.1208V15.8498H65.3708V15.5998ZM66.2943 15.5998V15.8498H66.5443V15.5998H66.2943ZM65.3708 9.28777H65.6208V9.03777H65.3708V9.28777ZM63.3561 9.28777H63.1061V9.53777H63.3561V9.28777ZM63.3561 8.39977V8.14977H63.1061V8.39977H63.3561ZM68.357 8.39977H68.607V8.14977H68.357V8.39977ZM68.357 9.28777V9.53777H68.607V9.28777H68.357ZM66.2943 9.28777V9.03777H66.0443V9.28777H66.2943ZM71.8828 8.39977V8.14977H71.6328V8.39977H71.8828ZM72.8063 8.39977H73.0563V8.14977H72.8063V8.39977ZM71.8828 15.5998H71.6328V15.8498H71.8828V15.5998ZM72.8063 15.5998V15.8498H73.0563V15.5998H72.8063ZM75.9843 15.5998H75.7343V15.8498H75.9843V15.5998ZM76.9077 15.5998V15.8498H77.1577V15.5998H76.9077ZM75.9843 9.28777H76.2343V9.03777H75.9843V9.28777ZM73.9695 9.28777H73.7195V9.53777H73.9695V9.28777ZM73.9695 8.39977V8.14977H73.7195V8.39977H73.9695ZM78.9105 8.39977H79.1605V8.14977H78.9105V8.39977ZM78.9105 9.28777V9.53777H79.1605V9.28777H78.9105ZM76.9077 9.28777V9.03777H76.6577V9.28777H76.9077ZM90.6393 8.39977V8.14977H90.3893V8.39977H90.6393ZM91.7666 8.39977L91.9786 8.26729L91.9052 8.14977H91.7666V8.39977ZM90.6393 15.5998H90.3893V15.8498H90.6393V15.5998ZM91.5747 15.5998V15.8498H91.8247V15.5998H91.5747ZM91.5747 9.73177L91.7869 9.59952L91.3247 8.8581V9.73177H91.5747ZM95.2325 15.5998L95.0203 15.732L95.0937 15.8498H95.2325V15.5998ZM96.1919 15.5998V15.8498H96.4419V15.5998H96.1919ZM96.1919 8.39977H96.4419V8.14977H96.1919V8.39977ZM95.2684 8.39977V8.14977H95.0184V8.39977H95.2684ZM95.2684 14.0038L95.0564 14.1363L95.5184 14.8756V14.0038H95.2684ZM87.5932 14.0638L87.7699 14.2411L87.7784 14.2317L87.5932 14.0638ZM83.6836 14.0638L83.4981 14.2319L83.5071 14.2409L83.6836 14.0638ZM87.5932 9.93577L87.7786 9.76764L87.7696 9.75868L87.5932 9.93577ZM83.6836 9.93577L83.5069 9.75845L83.4984 9.76786L83.6836 9.93577ZM83.1818 14.4921C81.8579 13.09 81.8579 10.8976 83.1818 9.4954L82.8182 9.15214C81.3124 10.747 81.3124 13.2405 82.8182 14.8354L83.1818 14.4921ZM88.1004 14.4866C86.7384 15.8418 84.5383 15.8418 83.1763 14.4866L82.8237 14.841C84.3807 16.3903 86.896 16.3903 88.4531 14.841L88.1004 14.4866ZM88.0955 9.49593C89.4247 10.8956 89.4247 13.092 88.0955 14.4916L88.458 14.8359C89.9705 13.2433 89.9705 10.7442 88.458 9.15161L88.0955 9.49593ZM85.6384 8.47461C86.5624 8.47461 87.4482 8.84364 88.0993 9.49985L88.4542 9.14769C87.7093 8.39689 86.6957 7.97461 85.6384 7.97461V8.47461ZM83.1775 9.49985C83.8285 8.84364 84.7143 8.47461 85.6384 8.47461V7.97461C84.581 7.97461 83.5674 8.39689 82.8225 9.14769L83.1775 9.49985ZM56.6183 12.2993C56.6564 13.1205 56.3562 13.9213 55.788 14.5149L56.1492 14.8606C56.8121 14.1681 57.1622 13.234 57.1178 12.2762L56.6183 12.2993ZM56.574 11.7919C56.6034 11.9555 56.6181 12.1214 56.6181 12.2877L57.1181 12.2879C57.1181 12.092 57.1008 11.8964 57.0662 11.7036L56.574 11.7919ZM53.3302 11.9978H56.8201V11.4978H53.3302V11.9978ZM53.5802 12.6118V11.7478H53.0802V12.6118H53.5802ZM55.9326 12.3618H53.3302V12.8618H55.9326V12.3618ZM55.5168 14.2453C55.9265 13.801 56.1628 13.2241 56.1825 12.6199L55.6828 12.6036C55.667 13.0879 55.4776 13.5502 55.1492 13.9063L55.5168 14.2453ZM52.1431 14.8683C53.2852 15.3626 54.6122 15.1207 55.5068 14.2555L55.1592 13.8961C54.4098 14.6209 53.2983 14.8234 52.3417 14.4094L52.1431 14.8683ZM50.286 11.9963C50.2685 13.241 51.0011 14.3741 52.1431 14.8683L52.3417 14.4094C51.3851 13.9955 50.7713 13.0462 50.7859 12.0033L50.286 11.9963ZM51.1409 9.79041C50.5663 10.3826 50.2577 11.1835 50.2861 12.0084L50.7858 11.9912C50.7621 11.3021 51.0199 10.6332 51.4998 10.1386L51.1409 9.79041ZM53.3315 8.86977C52.5065 8.86572 51.7155 9.19817 51.1409 9.79041L51.4998 10.1386C51.9796 9.64398 52.6402 9.36639 53.329 9.36977L53.3315 8.86977ZM55.4884 9.81095C54.9526 9.17318 54.1481 8.82468 53.3166 8.87014L53.3439 9.3694C54.0183 9.33252 54.6709 9.61518 55.1056 10.1326L55.4884 9.81095ZM55.7558 9.15905L55.1202 9.79505L55.4739 10.1485L56.1095 9.51249L55.7558 9.15905ZM54.7118 8.7636C55.1091 8.92396 55.4628 9.17622 55.7439 9.49975L56.1214 9.17179C55.7884 8.78865 55.3695 8.48987 54.8989 8.29994L54.7118 8.7636ZM53.3311 8.48177C53.804 8.48019 54.2722 8.57541 54.7069 8.76159L54.9038 8.30195C54.4063 8.08893 53.8705 7.97997 53.3294 7.98177L53.3311 8.48177ZM50.8585 9.48665C51.5064 8.82485 52.3992 8.46107 53.3247 8.48171L53.3358 7.98183C52.272 7.95811 51.2458 8.37627 50.5012 9.13689L50.8585 9.48665ZM50.0976 13.3194C49.5573 12.0056 49.8567 10.4957 50.8573 9.48791L50.5025 9.13563C49.3601 10.2862 49.0184 12.0098 49.6352 13.5096L50.0976 13.3194ZM53.3322 15.5058C51.9126 15.4947 50.638 14.6331 50.0976 13.3194L49.6352 13.5096C50.252 15.0093 51.7073 15.9931 53.3283 16.0058L53.3322 15.5058ZM55.7885 14.5144C55.1499 15.1782 54.2593 15.5387 53.3391 15.5059L53.3213 16.0056C54.3836 16.0435 55.4117 15.6273 56.1488 14.8611L55.7885 14.5144ZM62.3607 9.03777H59.1227V9.53777H62.3607V9.03777ZM62.1107 8.39977V9.28777H62.6107V8.39977H62.1107ZM58.1633 8.64977H62.3607V8.14977H58.1633V8.64977ZM58.4133 15.5998V8.39977H57.9133V15.5998H58.4133ZM62.3607 15.3498H58.1633V15.8498H62.3607V15.3498ZM62.1107 14.7118V15.5998H62.6107V14.7118H62.1107ZM59.1227 14.9618H62.3607V14.4618H59.1227V14.9618ZM58.8727 12.4318V14.7118H59.3727V12.4318H58.8727ZM62.0729 12.1818H59.1227V12.6818H62.0729V12.1818ZM61.8229 11.5678V12.4318H62.3229V11.5678H61.8229ZM59.1227 11.8178H62.0729V11.3178H59.1227V11.8178ZM58.8727 9.28777V11.5678H59.3727V9.28777H58.8727ZM65.3708 15.8498H66.2943V15.3498H65.3708V15.8498ZM65.1208 9.28777V15.5998H65.6208V9.28777H65.1208ZM63.3561 9.53777H65.3708V9.03777H63.3561V9.53777ZM63.1061 8.39977V9.28777H63.6061V8.39977H63.1061ZM68.357 8.14977H63.3561V8.64977H68.357V8.14977ZM68.607 9.28777V8.39977H68.107V9.28777H68.607ZM66.2943 9.53777H68.357V9.03777H66.2943V9.53777ZM66.5443 15.5998V9.28777H66.0443V15.5998H66.5443ZM71.8828 8.64977H72.8063V8.14977H71.8828V8.64977ZM72.1328 15.5998V8.39977H71.6328V15.5998H72.1328ZM72.8063 15.3498H71.8828V15.8498H72.8063V15.3498ZM72.5563 8.39977V15.5998H73.0563V8.39977H72.5563ZM75.9843 15.8498H76.9077V15.3498H75.9843V15.8498ZM75.7343 9.28777V15.5998H76.2343V9.28777H75.7343ZM73.9695 9.53777H75.9843V9.03777H73.9695V9.53777ZM73.7195 8.39977V9.28777H74.2195V8.39977H73.7195ZM78.9105 8.14977H73.9695V8.64977H78.9105V8.14977ZM79.1605 9.28777V8.39977H78.6605V9.28777H79.1605ZM76.9077 9.53777H78.9105V9.03777H76.9077V9.53777ZM77.1577 15.5998V9.28777H76.6577V15.5998H77.1577ZM90.6393 8.64977H91.7666V8.14977H90.6393V8.64977ZM90.8893 15.5998V8.39977H90.3893V15.5998H90.8893ZM91.5747 15.3498H90.6393V15.8498H91.5747V15.3498ZM91.3247 9.73177V15.5998H91.8247V9.73177H91.3247ZM95.4446 15.4675L91.7869 9.59952L91.3626 9.86402L95.0203 15.732L95.4446 15.4675ZM96.1919 15.3498H95.2325V15.8498H96.1919V15.3498ZM95.9419 8.39977V15.5998H96.4419V8.39977H95.9419ZM95.2684 8.64977H96.1919V8.14977H95.2684V8.64977ZM95.5184 14.0038V8.39977H95.0184V14.0038H95.5184ZM91.5546 8.53225L95.0564 14.1363L95.4804 13.8713L91.9786 8.26729L91.5546 8.53225ZM87.4167 13.8867C86.4333 14.8665 84.8434 14.8665 83.86 13.8867L83.5071 14.2409C84.6856 15.4152 86.5911 15.4152 87.7696 14.2409L87.4167 13.8867ZM87.4079 10.1037C88.3832 11.1794 88.3832 12.8201 87.4079 13.8959L87.7784 14.2317C88.9263 12.9654 88.9263 11.0341 87.7784 9.76786L87.4079 10.1037ZM83.86 10.1129C84.8434 9.13299 86.4333 9.13299 87.4167 10.1129L87.7696 9.75868C86.5911 8.58439 84.6856 8.58439 83.5071 9.75868L83.86 10.1129ZM83.8688 13.8959C82.8936 12.8201 82.8936 11.1794 83.8688 10.1037L83.4984 9.76786C82.3504 11.0341 82.3504 12.9654 83.4984 14.2317L83.8688 13.8959Z" fill="white"/>
<path d="M12.5208 9.04884C12.1299 9.51817 11.9326 10.119 11.9691 10.7288V37.2728C11.9326 37.8827 12.1299 38.4835 12.5208 38.9528L12.6047 39.0368L27.4636 24.1808V23.8328L12.6047 8.96484L12.5208 9.04884Z" fill="url(#paint0_linear_0_148)"/>
<path d="M32.3799 29.1363L27.4629 24.1803V23.8323L32.3799 18.8643L32.4878 18.9243L38.3762 22.2723C40.0551 23.2203 40.0551 24.7803 38.3762 25.7403L32.5118 29.0763L32.3799 29.1363Z" fill="url(#paint1_linear_0_148)"/>
<path d="M32.5252 29.064L27.4643 24L12.5215 38.952C13.2275 39.573 14.2753 39.6033 15.0159 39.024L32.5372 29.064" fill="url(#paint2_linear_0_148)"/>
<path d="M32.5235 18.9365L15.0023 8.97645C14.2616 8.39718 13.2138 8.42742 12.5078 9.04845L27.4626 24.0005L32.5235 18.9365Z" fill="url(#paint3_linear_0_148)"/>
<path opacity="0.2" d="M32.3813 28.9561L15.004 38.8561C14.2928 39.3881 13.3165 39.3881 12.6054 38.8561L12.5215 38.9401L12.6054 39.0241C13.3152 39.5601 14.2942 39.5601 15.004 39.0241L32.5252 29.0641L32.3813 28.9561Z" fill="black"/>
<path opacity="0.12" fill-rule="evenodd" clip-rule="evenodd" d="M32.3806 28.956L38.3769 25.56C38.9966 25.254 39.4395 24.6778 39.5762 24C39.5144 24.7493 39.057 25.4083 38.3769 25.728L32.4885 29.064L32.3806 28.956ZM11.9665 37.3376C11.9863 37.8656 12.18 38.3748 12.5208 38.784L12.6047 38.88L12.5208 38.964C12.1414 38.5084 11.9444 37.929 11.9665 37.3376ZM11.9665 37.3376C11.9672 37.3197 11.9681 37.3019 11.9691 37.284V37.104C11.9645 37.1821 11.9636 37.2601 11.9665 37.3376Z" fill="black"/>
<path opacity="0.25" d="M15.0032 9.1449L38.3768 22.4409C38.9964 22.747 39.4394 23.3231 39.576 24.0009C39.5142 23.2516 39.0568 22.5926 38.3768 22.2729L15.0032 8.9769C13.3242 8.0289 11.957 8.8209 11.957 10.7409V10.9209C11.993 8.9889 13.3362 8.1969 15.0032 9.1449Z" fill="white"/>
<defs>
<linearGradient id="paint0_linear_0_148" x1="20.9555" y1="-9.06992" x2="-2.83912" y2="-2.74559" gradientUnits="userSpaceOnUse">
<stop stop-color="#00A0FF"/>
<stop offset="0.01" stop-color="#00A1FF"/>
<stop offset="0.26" stop-color="#00BEFF"/>
<stop offset="0.51" stop-color="#00D2FF"/>
<stop offset="0.76" stop-color="#00DFFF"/>
<stop offset="1" stop-color="#00E3FF"/>
</linearGradient>
<linearGradient id="paint1_linear_0_148" x1="40.5708" y1="11.7599" x2="11.5607" y2="11.7599" gradientUnits="userSpaceOnUse">
<stop stop-color="#FFE000"/>
<stop offset="0.41" stop-color="#FFBD00"/>
<stop offset="0.78" stop-color="#FFA500"/>
<stop offset="1" stop-color="#FF9C00"/>
</linearGradient>
<linearGradient id="paint2_linear_0_148" x1="12.0824" y1="16.233" x2="-7.04693" y2="48.3906" gradientUnits="userSpaceOnUse">
<stop stop-color="#FF3A44"/>
<stop offset="1" stop-color="#C31162"/>
</linearGradient>
<linearGradient id="paint3_linear_0_148" x1="0.851009" y1="4.91566" x2="9.38946" y2="19.2756" gradientUnits="userSpaceOnUse">
<stop stop-color="#32A071"/>
<stop offset="0.07" stop-color="#2DA771"/>
<stop offset="0.48" stop-color="#15CF74"/>
<stop offset="0.8" stop-color="#06E775"/>
<stop offset="1" stop-color="#00F076"/>
</linearGradient>
</defs>
</svg>
